<svg width="24" height="24" viewBox="0 0 24 24" fill="none" xmlns="http://www.w3.org/2000/svg">
<path d="M17.25 14.25H16.5C16.0852 14.25 15.75 13.9148 15.75 13.5C15.75 13.0852 16.0852 12.75 16.5 12.75H17.25C17.6648 12.75 18 13.0852 18 13.5C18 13.9148 17.6648 14.25 17.25 14.25ZM18 16.5C18 16.0852 17.6648 15.75 17.25 15.75H16.5C16.0852 15.75 15.75 16.0852 15.75 16.5C15.75 16.9148 16.0852 17.25 16.5 17.25H17.25C17.6648 17.25 18 16.9148 18 16.5ZM15 7.5C15 7.08525 14.6648 6.75 14.25 6.75H13.5C13.0852 6.75 12.75 7.08525 12.75 7.5C12.75 7.91475 13.0852 8.25 13.5 8.25H14.25C14.6648 8.25 15 7.91475 15 7.5ZM18 7.5C18 7.08525 17.6648 6.75 17.25 6.75H16.5C16.0852 6.75 15.75 7.08525 15.75 7.5C15.75 7.91475 16.0852 8.25 16.5 8.25H17.25C17.6648 8.25 18 7.91475 18 7.5ZM18 10.5C18 10.0852 17.6648 9.75 17.25 9.75H16.5C16.0852 9.75 15.75 10.0852 15.75 10.5C15.75 10.9148 16.0852 11.25 16.5 11.25H17.25C17.6648 11.25 18 10.9148 18 10.5ZM21 17.25V6.75C21 4.68225 19.3177 3 17.25 3H13.5C11.4323 3 9.75 4.68225 9.75 6.75C9.75 7.16475 10.0852 7.5 10.5 7.5C10.9148 7.5 11.25 7.16475 11.25 6.75C11.25 5.5095 12.2595 4.5 13.5 4.5H17.25C18.4905 4.5 19.5 5.5095 19.5 6.75V17.25C19.5 18.4905 18.4905 19.5 17.25 19.5H16.5C16.0852 19.5 15.75 19.8353 15.75 20.25C15.75 20.6647 16.0852 21 16.5 21H17.25C19.3177 21 21 19.3177 21 17.25ZM15 17.625V14.511C15 13.35 14.4757 12.2745 13.5608 11.5575L11.3108 9.79575C9.95025 8.73225 8.04975 8.7315 6.68925 9.79575L4.43925 11.5568C3.52425 12.273 3 13.3492 3 14.5103V17.6243C3 19.485 4.51425 20.9993 6.375 20.9993H11.625C13.4858 20.9993 15 19.4858 15 17.625ZM10.3868 10.9777L12.6368 12.7387C13.185 13.1685 13.5 13.815 13.5 14.511V17.625C13.5 18.6593 12.6593 19.5 11.625 19.5H6.375C5.34075 19.5 4.5 18.6593 4.5 17.625V14.511C4.5 13.8142 4.815 13.1685 5.36325 12.7387L7.61325 10.9785C8.02125 10.659 8.51025 10.4992 9 10.4992C9.48975 10.4992 9.97875 10.659 10.3868 10.9777ZM10.5 16.5V15C10.5 14.586 10.164 14.25 9.75 14.25H8.25C7.836 14.25 7.5 14.586 7.5 15V16.5C7.5 16.914 7.836 17.25 8.25 17.25H9.75C10.164 17.25 10.5 16.914 10.5 16.5Z" fill="white"/>
</svg>
