<svg width="24" height="24" viewBox="0 0 24 24" fill="none" xmlns="http://www.w3.org/2000/svg">
<path d="M17.2476 5.9995H16.422C16.0733 4.29053 14.5586 3 12.7484 3H6.74938C4.68197 3 3 4.68197 3 6.74938V16.3883C3 16.9837 3.3262 17.5281 3.85036 17.8085C4.08882 17.9368 4.35052 17.9998 4.61148 17.9998C4.92343 17.9998 5.23463 17.909 5.50383 17.7298L7.71596 16.2548C8.23413 17.7058 9.6214 18.7474 11.2486 18.7474H15.5207L18.4932 20.7293C18.7631 20.9093 19.0736 21 19.3855 21C19.6465 21 19.9074 20.9363 20.1466 20.808C20.6716 20.5276 20.997 19.9832 20.997 19.3878V9.74888C20.997 7.68147 19.315 5.9995 17.2476 5.9995ZM4.67222 16.482C4.65797 16.491 4.61598 16.518 4.55824 16.4873C4.499 16.4558 4.499 16.4055 4.499 16.389V6.74938C4.499 5.50908 5.50833 4.49975 6.74863 4.49975H12.7476C13.9879 4.49975 14.9973 5.50908 14.9973 6.74938V11.9985C14.9973 13.2388 13.9879 14.2481 12.7476 14.2481H8.24838C8.00317 14.2481 7.84269 14.3674 7.8247 14.3794L4.67222 16.482ZM19.4973 19.3885C19.4973 19.4043 19.4973 19.4553 19.438 19.4868C19.3788 19.5175 19.3383 19.4905 19.3248 19.4815L16.1641 17.3736C16.0411 17.2919 15.8964 17.2476 15.7479 17.2476H11.2486C10.2708 17.2476 9.43768 16.6207 9.12798 15.7479H12.7484C14.8158 15.7479 16.4978 14.0659 16.4978 11.9985V7.49925H17.2476C18.4879 7.49925 19.4973 8.50858 19.4973 9.74888V19.3885Z" fill="#236C85"/>
</svg>
