<svg width="25" height="24" viewBox="0 0 25 24" fill="none" xmlns="http://www.w3.org/2000/svg">
<path d="M19.9969 7.29557V4.50309C19.9969 4.08917 19.6617 3.75323 19.247 3.75323C18.8324 3.75323 18.4972 4.08917 18.4972 4.50309V6.27726L14.5957 3.6445C13.3217 2.78517 11.675 2.78517 10.401 3.6445L5.15194 7.18684C4.11788 7.88496 3.5 9.04649 3.5 10.295V17.2507C3.5 19.3181 5.18193 21 7.2493 21H8.74902C9.16369 21 9.49887 20.6641 9.49887 20.2501V13.5014C9.49887 13.0882 9.83481 12.7515 10.2487 12.7515H14.7479C15.1618 12.7515 15.4977 13.0882 15.4977 13.5014V20.2501C15.4977 20.6641 15.8329 21 16.2476 21H17.7473C19.8147 21 21.4966 19.3181 21.4966 17.2507V10.295C21.4966 9.10948 20.9387 8.00194 19.9969 7.29557Z" fill="#236C85"/>
</svg>
